<mxfile host="app.diagrams.net" modified="2020-11-01T14:43:02.676Z" agent="5.0 (Macintosh; Intel Mac OS X 10_14_0) AppleWebKit/537.36 (KHTML, like Gecko) Chrome/86.0.4240.111 Safari/537.36" etag="4juSf5IUf_DghVteB44A" version="13.8.8" type="gitlab">
  <diagram id="C5RBs43oDa-KdzZeNtuy" name="Page-1">
    <mxGraphModel dx="1186" dy="1838" grid="1" gridSize="10" guides="1" tooltips="1" connect="1" arrows="1" fold="1" page="1" pageScale="1" pageWidth="827" pageHeight="1169" math="0" shadow="0">
      <root>
        <mxCell id="WIyWlLk6GJQsqaUBKTNV-0" />
        <mxCell id="WIyWlLk6GJQsqaUBKTNV-1" parent="WIyWlLk6GJQsqaUBKTNV-0" />
        <mxCell id="h3iLRauTDkZyDgVHB7fp-0" value="" style="rounded=1;whiteSpace=wrap;html=1;" vertex="1" parent="WIyWlLk6GJQsqaUBKTNV-1">
          <mxGeometry x="20" y="-120" width="970" height="800" as="geometry" />
        </mxCell>
        <mxCell id="h3iLRauTDkZyDgVHB7fp-4" value="" style="edgeStyle=orthogonalEdgeStyle;rounded=0;orthogonalLoop=1;jettySize=auto;html=1;" edge="1" parent="WIyWlLk6GJQsqaUBKTNV-1" source="h3iLRauTDkZyDgVHB7fp-1" target="h3iLRauTDkZyDgVHB7fp-2">
          <mxGeometry relative="1" as="geometry" />
        </mxCell>
        <mxCell id="h3iLRauTDkZyDgVHB7fp-1" value="Start" style="ellipse;whiteSpace=wrap;html=1;" vertex="1" parent="WIyWlLk6GJQsqaUBKTNV-1">
          <mxGeometry x="70" y="90" width="120" height="80" as="geometry" />
        </mxCell>
        <mxCell id="h3iLRauTDkZyDgVHB7fp-5" value="" style="edgeStyle=orthogonalEdgeStyle;rounded=0;orthogonalLoop=1;jettySize=auto;html=1;" edge="1" parent="WIyWlLk6GJQsqaUBKTNV-1" source="h3iLRauTDkZyDgVHB7fp-2" target="h3iLRauTDkZyDgVHB7fp-3">
          <mxGeometry relative="1" as="geometry" />
        </mxCell>
        <mxCell id="h3iLRauTDkZyDgVHB7fp-2" value="menu" style="shape=process;whiteSpace=wrap;html=1;backgroundOutline=1;" vertex="1" parent="WIyWlLk6GJQsqaUBKTNV-1">
          <mxGeometry x="70" y="210" width="120" height="60" as="geometry" />
        </mxCell>
        <mxCell id="h3iLRauTDkZyDgVHB7fp-3" value="return 0;&lt;br&gt;(End)" style="ellipse;whiteSpace=wrap;html=1;" vertex="1" parent="WIyWlLk6GJQsqaUBKTNV-1">
          <mxGeometry x="70" y="310" width="120" height="80" as="geometry" />
        </mxCell>
        <mxCell id="h3iLRauTDkZyDgVHB7fp-6" value="main" style="text;html=1;strokeColor=none;fillColor=none;align=center;verticalAlign=middle;whiteSpace=wrap;rounded=0;" vertex="1" parent="WIyWlLk6GJQsqaUBKTNV-1">
          <mxGeometry x="110" y="60" width="40" height="20" as="geometry" />
        </mxCell>
        <mxCell id="h3iLRauTDkZyDgVHB7fp-7" value="menu" style="text;html=1;strokeColor=none;fillColor=none;align=center;verticalAlign=middle;whiteSpace=wrap;rounded=0;" vertex="1" parent="WIyWlLk6GJQsqaUBKTNV-1">
          <mxGeometry x="320" y="60" width="40" height="20" as="geometry" />
        </mxCell>
        <mxCell id="h3iLRauTDkZyDgVHB7fp-10" value="" style="edgeStyle=orthogonalEdgeStyle;rounded=0;orthogonalLoop=1;jettySize=auto;html=1;" edge="1" parent="WIyWlLk6GJQsqaUBKTNV-1" source="h3iLRauTDkZyDgVHB7fp-8" target="h3iLRauTDkZyDgVHB7fp-9">
          <mxGeometry relative="1" as="geometry" />
        </mxCell>
        <mxCell id="h3iLRauTDkZyDgVHB7fp-8" value="Start" style="ellipse;whiteSpace=wrap;html=1;" vertex="1" parent="WIyWlLk6GJQsqaUBKTNV-1">
          <mxGeometry x="280" y="90" width="120" height="80" as="geometry" />
        </mxCell>
        <mxCell id="h3iLRauTDkZyDgVHB7fp-12" value="" style="edgeStyle=orthogonalEdgeStyle;rounded=0;orthogonalLoop=1;jettySize=auto;html=1;" edge="1" parent="WIyWlLk6GJQsqaUBKTNV-1" source="h3iLRauTDkZyDgVHB7fp-9" target="h3iLRauTDkZyDgVHB7fp-11">
          <mxGeometry relative="1" as="geometry" />
        </mxCell>
        <mxCell id="h3iLRauTDkZyDgVHB7fp-9" value="Output menu&lt;br&gt;options" style="shape=parallelogram;perimeter=parallelogramPerimeter;whiteSpace=wrap;html=1;fixedSize=1;" vertex="1" parent="WIyWlLk6GJQsqaUBKTNV-1">
          <mxGeometry x="280" y="210" width="120" height="60" as="geometry" />
        </mxCell>
        <mxCell id="h3iLRauTDkZyDgVHB7fp-14" value="" style="edgeStyle=orthogonalEdgeStyle;rounded=0;orthogonalLoop=1;jettySize=auto;html=1;" edge="1" parent="WIyWlLk6GJQsqaUBKTNV-1" source="h3iLRauTDkZyDgVHB7fp-11" target="h3iLRauTDkZyDgVHB7fp-13">
          <mxGeometry relative="1" as="geometry" />
        </mxCell>
        <mxCell id="h3iLRauTDkZyDgVHB7fp-11" value="Get menu option&lt;br&gt;from user" style="shape=parallelogram;perimeter=parallelogramPerimeter;whiteSpace=wrap;html=1;fixedSize=1;" vertex="1" parent="WIyWlLk6GJQsqaUBKTNV-1">
          <mxGeometry x="280" y="310" width="120" height="60" as="geometry" />
        </mxCell>
        <mxCell id="h3iLRauTDkZyDgVHB7fp-16" value="" style="edgeStyle=orthogonalEdgeStyle;rounded=0;orthogonalLoop=1;jettySize=auto;html=1;" edge="1" parent="WIyWlLk6GJQsqaUBKTNV-1" source="h3iLRauTDkZyDgVHB7fp-13" target="h3iLRauTDkZyDgVHB7fp-15">
          <mxGeometry relative="1" as="geometry" />
        </mxCell>
        <mxCell id="h3iLRauTDkZyDgVHB7fp-19" value="" style="edgeStyle=orthogonalEdgeStyle;rounded=0;orthogonalLoop=1;jettySize=auto;html=1;" edge="1" parent="WIyWlLk6GJQsqaUBKTNV-1" source="h3iLRauTDkZyDgVHB7fp-13" target="h3iLRauTDkZyDgVHB7fp-18">
          <mxGeometry relative="1" as="geometry" />
        </mxCell>
        <mxCell id="h3iLRauTDkZyDgVHB7fp-23" value="" style="edgeStyle=orthogonalEdgeStyle;rounded=0;orthogonalLoop=1;jettySize=auto;html=1;" edge="1" parent="WIyWlLk6GJQsqaUBKTNV-1" source="h3iLRauTDkZyDgVHB7fp-13" target="h3iLRauTDkZyDgVHB7fp-22">
          <mxGeometry relative="1" as="geometry" />
        </mxCell>
        <mxCell id="h3iLRauTDkZyDgVHB7fp-13" value="Option?" style="rhombus;whiteSpace=wrap;html=1;" vertex="1" parent="WIyWlLk6GJQsqaUBKTNV-1">
          <mxGeometry x="300" y="410" width="80" height="80" as="geometry" />
        </mxCell>
        <mxCell id="h3iLRauTDkZyDgVHB7fp-15" value="return 0;&lt;br&gt;(End)" style="ellipse;whiteSpace=wrap;html=1;" vertex="1" parent="WIyWlLk6GJQsqaUBKTNV-1">
          <mxGeometry x="130" y="410" width="120" height="80" as="geometry" />
        </mxCell>
        <mxCell id="h3iLRauTDkZyDgVHB7fp-17" value="Exit" style="text;html=1;strokeColor=none;fillColor=none;align=center;verticalAlign=middle;whiteSpace=wrap;rounded=0;" vertex="1" parent="WIyWlLk6GJQsqaUBKTNV-1">
          <mxGeometry x="260" y="430" width="40" height="20" as="geometry" />
        </mxCell>
        <mxCell id="h3iLRauTDkZyDgVHB7fp-18" value="decrypt" style="shape=process;whiteSpace=wrap;html=1;backgroundOutline=1;" vertex="1" parent="WIyWlLk6GJQsqaUBKTNV-1">
          <mxGeometry x="280" y="540" width="120" height="60" as="geometry" />
        </mxCell>
        <mxCell id="h3iLRauTDkZyDgVHB7fp-21" value="Decrypt" style="text;html=1;strokeColor=none;fillColor=none;align=center;verticalAlign=middle;whiteSpace=wrap;rounded=0;" vertex="1" parent="WIyWlLk6GJQsqaUBKTNV-1">
          <mxGeometry x="350" y="500" width="40" height="20" as="geometry" />
        </mxCell>
        <mxCell id="h3iLRauTDkZyDgVHB7fp-22" value="encrypt" style="shape=process;whiteSpace=wrap;html=1;backgroundOutline=1;" vertex="1" parent="WIyWlLk6GJQsqaUBKTNV-1">
          <mxGeometry x="430" y="420" width="120" height="60" as="geometry" />
        </mxCell>
        <mxCell id="h3iLRauTDkZyDgVHB7fp-24" value="Encrypt" style="text;html=1;strokeColor=none;fillColor=none;align=center;verticalAlign=middle;whiteSpace=wrap;rounded=0;" vertex="1" parent="WIyWlLk6GJQsqaUBKTNV-1">
          <mxGeometry x="380" y="430" width="40" height="20" as="geometry" />
        </mxCell>
      </root>
    </mxGraphModel>
  </diagram>
</mxfile>
